# xmcd
#
# Track frame offsets:
# 150
# 17552
# 34098
# 55247
# 68357
# 90350
# 107337
# 123152
# 135171
# 175461
# 184049
# 196914
# 213213
# 237548
# 252005
#
# Disc length: 3604 seconds
#
# Revision: 1
# Processed by: cddbd v1.5.2PL0 Copyright (c) Steve Scherf et al.
# Submitted via: CedeCatalogueitor 2.6.0.6 http://personales.ya.com/cdcatalogueitor
#
DISCID=b60e120f
DTITLE=Varios Artistas - Stereoparty 2007
DYEAR=1900
DGENRE=
TTITLE0=The Unfinished Sympathy: Spin In The Rye
TTITLE1=Vanexxa: Desheredado
TTITLE2=Tulsa: Seguramente Me Lo Merezco
TTITLE3=Pauline En La Playa: Lo Que Pesa Un Hueso De Cereza
TTITLE4=Mercromina: Filosofia Oriental
TTITLE5=Fon Roman: El Idiota
TTITLE6=Cathy Claret: Ni Con Dinero
TTITLE7=Racalmuto: Le Flamboyant Monsieaur Igor
TTITLE8=Mastretta: Galindo
TTITLE9=Lula: Lo Que Hay
TTITLE10=Profesor Popsnuggle: Carlos Se Enamora
TTITLE11=Carlos Cros Y Los 400 Golpes
TTITLE12=Sterlin: Son Of A Bicht (November Mix)
TTITLE13=Spunkfool: Scapeland
TTITLE14=Seine: Dreaming On The Picadilly Line
EXTD=
EXTT0=
EXTT1=
EXTT2=
EXTT3=
EXTT4=
EXTT5=
EXTT6=
EXTT7=
EXTT8=
EXTT9=
EXTT10=
EXTT11=
EXTT12=
EXTT13=
EXTT14=
PLAYORDER=
